# xmcd
#
# Track frame offsets:
#	150
#	14332
#	26702
#	42734
#	56689
#	72566
#	94028
#	105564
#	123373
#	136141
#	152646
#	164912
#	176180
#	188085
#	202809
#	228243
#	247110
#	267212
#	280685
#	294093
#
# Disc length: 4107 seconds
#
# Revision: 1
# Processed by: cddbd v1.5.2PL0 Copyright (c) Steve Scherf et al.
# Submitted via: audiograbber 1.83.01
#
DISCID=22100914
DTITLE=Mama Lion Feat. Neil Merryweather - Preserve Wildlife - Give It Everythi
DTITLE=ng I've Got
DYEAR=1973
DGENRE=
TTITLE0=Ain't No Sunshine
TTITLE1=Be Bad With Me
TTITLE2=Ain't Too Proud To Beg
TTITLE3=Wildcat
TTITLE4=Candy Man
TTITLE5=Mr. Invitation
TTITLE6=Sister,Sister(She Better Than A Man)
TTITLE7=Can't Find My Way Home
TTITLE8=It's Only A Dream
TTITLE9=Cry
TTITLE10=Give It Everything I've Got
TTITLE11=I Wanna Be Your Woman
TTITLE12=Life Is Just A Four Letter Word
TTITLE13=Mama Never Told Me
TTITLE14=Crazy Place
TTITLE15=Dark Garden
TTITLE16=From Bad To Worse
TTITLE17=I'm Tired
TTITLE18=Criffins
TTITLE19=Saved
EXTD=
EXTT0=
EXTT1=
EXTT2=
EXTT3=
EXTT4=
EXTT5=
EXTT6=
EXTT7=
EXTT8=
EXTT9=
EXTT10=
EXTT11=
EXTT12=
EXTT13=
EXTT14=
EXTT15=
EXTT16=
EXTT17=
EXTT18=
EXTT19=
PLAYORDER=
